<?xml version="1.0" standalone="no"?>
<!DOCTYPE svg PUBLIC "-//W3C//DTD SVG 20010904//EN"
 "http://www.w3.org/TR/2001/REC-SVG-20010904/DTD/svg10.dtd">
<svg version="1.0" xmlns="http://www.w3.org/2000/svg"
 width="640.000000pt" height="480.000000pt" viewBox="0 0 640.000000 480.000000"
 preserveAspectRatio="xMidYMid meet">
<metadata>
Created by potrace 1.15, written by Peter Selinger 2001-2017
</metadata>
<g transform="translate(0.000000,480.000000) scale(0.100000,-0.100000)"
fill="#000000" stroke="none">
<path d="M4050 2405 l0 -427 323 5 c370 5 457 16 573 73 87 42 163 115 201
193 25 50 28 67 28 156 0 89 -3 106 -28 157 -34 70 -121 152 -202 192 -114 55
-205 67 -567 73 l-328 6 0 -428z m595 289 c158 -41 245 -143 245 -289 0 -54
-6 -82 -25 -120 -65 -135 -177 -185 -417 -185 l-128 0 0 305 0 305 133 0 c88
0 153 -5 192 -16z"/>
<path d="M5535 2819 c-224 -26 -343 -118 -315 -243 20 -88 88 -136 326 -227
118 -44 180 -74 207 -97 20 -18 22 -79 3 -104 -49 -65 -250 -69 -513 -13 l-33
7 0 -65 c0 -54 3 -67 18 -71 45 -14 299 -28 402 -22 278 16 420 92 420 225 0
110 -76 176 -295 255 -234 85 -285 115 -285 166 0 94 237 116 473 44 15 -5 17
2 17 60 0 75 7 71 -125 86 -102 11 -198 11 -300 -1z"/>
<path d="M90 2625 l0 -195 35 0 35 0 1 108 c1 59 1 122 1 140 -1 17 2 32 6 32
4 0 73 -63 154 -140 123 -118 151 -140 177 -140 l31 0 0 195 0 195 -35 0 -35
0 0 -141 c0 -82 -4 -139 -9 -137 -5 2 -73 65 -150 141 -127 124 -143 137 -175
137 l-36 0 0 -195z"/>
<path d="M641 2625 l2 -195 39 0 38 0 0 195 0 195 -41 0 -40 0 2 -195z"/>
<path d="M830 2625 l0 -195 40 0 40 0 0 140 c0 77 3 140 8 140 4 0 70 -63 147
-140 123 -123 144 -140 172 -140 l33 0 0 195 0 195 -35 0 -34 0 -3 -142 -3
-143 -146 143 c-134 131 -148 142 -182 142 l-37 0 0 -195z"/>
<path d="M1360 2790 l0 -30 85 0 85 0 0 -165 0 -165 40 0 40 0 0 165 0 165 90
0 90 0 0 30 0 30 -215 0 -215 0 0 -30z"/>
<path d="M1870 2625 l0 -195 195 0 195 0 0 30 0 30 -155 0 -155 0 0 55 0 55
120 0 120 0 0 29 c0 25 -5 30 -31 36 -17 4 -70 6 -118 4 l-86 -4 -3 48 -3 47
155 0 156 0 0 30 0 30 -195 0 -195 0 0 -195z"/>
<path d="M2370 2625 l0 -195 40 0 40 0 0 141 0 140 22 -15 c12 -9 79 -72 148
-141 109 -107 131 -125 158 -125 l32 0 0 195 0 195 -35 0 -35 0 0 -141 c0 -86
-4 -139 -10 -137 -5 2 -72 65 -148 141 -127 126 -141 137 -175 137 l-37 0 0
-195z"/>
<path d="M2920 2625 l0 -195 180 0 180 0 40 36 c48 44 63 92 58 185 -3 49 -10
75 -28 102 -43 63 -58 67 -254 67 l-176 0 0 -195z m340 117 c82 -40 76 -206
-8 -241 -17 -7 -73 -11 -142 -9 l-115 3 -3 119 c-1 66 0 126 2 133 9 21 221
18 266 -5z"/>
<path d="M3489 2801 c-23 -18 -24 -26 -27 -168 -3 -147 -3 -149 22 -176 l25
-27 196 0 c195 0 196 0 220 25 24 23 25 28 25 170 0 142 -1 147 -25 170 -24
25 -25 25 -218 25 -177 0 -197 -2 -218 -19z m386 -176 l0 -130 -170 0 -170 0
-3 124 c-2 93 1 127 10 133 7 4 85 7 173 5 l160 -2 0 -130z"/>
</g>
</svg>
