<?xml version="1.0" standalone="no"?>
<!DOCTYPE svg PUBLIC "-//W3C//DTD SVG 20010904//EN"
 "http://www.w3.org/TR/2001/REC-SVG-20010904/DTD/svg10.dtd">
<svg version="1.0" xmlns="http://www.w3.org/2000/svg"
 width="1900.000000pt" height="450.000000pt" viewBox="0 0 1900.000000 450.000000"
 preserveAspectRatio="xMidYMid meet">
<metadata>
Created by potrace 1.15, written by Peter Selinger 2001-2017
</metadata>
<g transform="translate(0.000000,450.000000) scale(0.100000,-0.100000)"
fill="#000000" stroke="none">
<path d="M1480 3145 l0 -905 175 0 175 0 0 380 0 380 445 0 445 0 0 150 0 150
-445 0 -445 0 0 215 0 215 445 0 445 0 0 160 0 160 -620 0 -620 0 0 -905z"/>
<path d="M3600 3145 l0 -905 175 0 175 0 0 380 0 380 58 0 57 -1 222 -377 221
-377 158 -3 c87 -1 161 1 165 5 4 5 -86 175 -200 378 l-208 370 209 3 208 2 0
525 0 525 -620 0 -620 0 0 -905z m910 370 l0 -215 -280 0 -280 0 0 215 0 215
280 0 280 0 0 -215z"/>
<path d="M5720 3145 l0 -905 618 2 617 3 3 158 3 157 -446 0 -445 0 0 220 0
220 445 0 445 0 0 150 0 150 -445 0 -445 0 0 215 0 215 443 2 442 3 3 158 3
157 -621 0 -620 0 0 -905z"/>
<path d="M7832 3148 l3 -903 618 -3 617 -2 0 160 0 160 -440 0 -440 0 0 220 0
220 440 0 440 0 0 150 0 150 -440 0 -440 0 0 215 0 215 440 0 440 0 0 160 0
160 -620 0 -620 0 2 -902z"/>
<path d="M9950 3145 l0 -905 175 0 175 0 0 380 0 380 445 0 445 0 0 525 0 525
-620 0 -620 0 0 -905z m910 370 l0 -215 -280 0 -280 0 0 215 0 215 280 0 280
0 0 -215z"/>
<path d="M12070 3145 l0 -905 618 2 617 3 3 158 3 157 -446 0 -445 0 0 745 0
745 -175 0 -175 0 0 -905z"/>
<path d="M14190 3145 l0 -905 173 2 172 3 3 378 2 377 275 0 275 0 2 -377 3
-378 165 0 165 0 3 903 2 902 -620 0 -620 0 0 -905z m900 370 l0 -215 -275 0
-275 0 0 215 0 215 275 0 275 0 0 -215z"/>
<path d="M16374 3898 c40 -84 139 -289 220 -455 l146 -302 0 -451 0 -450 175
0 175 0 0 450 0 450 225 450 c124 247 225 452 225 455 0 3 -73 5 -163 5 l-162
0 -142 -282 -141 -283 -138 283 -138 282 -177 0 -178 0 73 -152z"/>
<path d="M5100 1787 c0 -11 101 -95 180 -150 14 -9 41 -30 62 -45 49 -37 199
-150 218 -165 9 -7 37 -27 62 -44 l46 -33 296 0 296 0 0 225 0 225 -580 0
c-465 0 -580 -3 -580 -13z"/>
<path d="M6660 1680 l0 -120 175 0 175 0 0 -560 0 -561 133 3 132 3 3 558 2
557 155 0 155 0 0 120 0 120 -465 0 -465 0 0 -120z"/>
<path d="M8250 1120 l0 -680 465 0 465 0 0 125 0 125 -330 0 -330 0 0 160 0
160 330 0 330 0 0 115 0 115 -330 0 -330 0 0 160 0 160 330 0 330 0 0 120 0
120 -465 0 -465 0 0 -680z"/>
<path d="M9840 1120 l0 -680 463 2 462 3 0 120 0 120 -332 3 -333 2 0 435 0
435 335 0 335 0 0 120 0 120 -465 0 -465 0 0 -680z"/>
<path d="M11422 1123 l3 -678 133 -3 132 -3 0 286 0 285 205 0 205 0 2 -282 3
-283 125 0 125 0 3 678 2 677 -130 0 -130 0 0 -280 0 -280 -205 0 -205 0 0
280 0 280 -135 0 -135 0 2 -677z"/>
<path d="M5097 1323 c-4 -3 -7 -28 -7 -55 l0 -48 360 0 c309 0 360 2 360 15 0
8 -10 20 -22 26 -13 7 -39 25 -58 41 l-35 28 -296 0 c-162 0 -299 -3 -302 -7z"/>
<path d="M5090 1105 l0 -55 469 0 c306 0 472 4 476 10 7 11 -37 52 -87 83 -26
15 -66 17 -443 17 l-415 0 0 -55z"/>
<path d="M5094 986 c-3 -7 -4 -33 -2 -57 l3 -44 580 4 c319 2 581 5 583 6 9 8
-26 43 -70 73 l-50 32 -519 0 c-434 0 -521 -2 -525 -14z"/>
<path d="M5100 812 c0 -10 24 -34 56 -57 103 -73 239 -172 270 -199 18 -14 34
-26 37 -26 4 0 48 -32 98 -70 51 -39 101 -70 111 -70 17 0 18 14 18 220 l0
220 -295 0 c-276 0 -295 -1 -295 -18z"/>
</g>
</svg>
