<?xml version="1.0" standalone="no"?>
<!DOCTYPE svg PUBLIC "-//W3C//DTD SVG 20010904//EN"
 "http://www.w3.org/TR/2001/REC-SVG-20010904/DTD/svg10.dtd">
<svg version="1.0" xmlns="http://www.w3.org/2000/svg"
 width="1600.000000pt" height="1067.000000pt" viewBox="0 0 1600.000000 1067.000000"
 preserveAspectRatio="xMidYMid meet">
<metadata>
Created by potrace 1.15, written by Peter Selinger 2001-2017
</metadata>
<g transform="translate(0.000000,1067.000000) scale(0.100000,-0.100000)"
fill="#000000" stroke="none">
<path d="M3715 7145 c-136 -14 -207 -29 -328 -71 -40 -13 -88 -29 -107 -36
-105 -34 -277 -131 -434 -245 -138 -101 -355 -331 -416 -441 -8 -15 -26 -42
-39 -61 -47 -66 -134 -258 -177 -389 -47 -143 -70 -247 -78 -355 l-5 -67 84
-40 c47 -21 95 -42 107 -45 13 -4 73 -29 134 -56 62 -27 116 -49 120 -49 5 0
54 -20 109 -44 55 -24 125 -54 155 -66 30 -13 101 -42 157 -65 l101 -42 59 29
c73 36 153 58 218 59 l50 0 55 86 c30 47 70 106 88 131 19 24 41 57 50 72 10
15 51 76 92 135 41 59 81 117 89 129 8 11 21 32 31 46 9 14 21 63 28 110 28
212 113 362 278 488 49 37 176 93 254 112 67 16 209 16 270 1 231 -60 406
-209 487 -415 73 -188 72 -332 -3 -515 -95 -229 -296 -378 -559 -415 -77 -10
-99 -18 -139 -47 -26 -19 -67 -47 -91 -64 -38 -27 -155 -112 -299 -217 -28
-21 -64 -46 -80 -55 -75 -46 -86 -62 -86 -116 0 -200 -174 -417 -370 -461
-240 -55 -459 37 -569 238 -22 39 -45 90 -51 112 -12 41 -15 43 -114 84 -55
23 -147 62 -202 86 -56 24 -105 44 -109 44 -4 0 -48 18 -97 41 -98 43 -178 73
-184 67 -16 -17 138 -377 197 -459 13 -19 31 -46 39 -61 61 -110 278 -340 416
-441 157 -114 328 -211 434 -246 19 -6 74 -24 122 -40 187 -64 434 -90 676
-71 182 14 223 21 392 75 281 89 510 228 725 441 212 211 329 394 445 699 54
141 100 419 100 600 0 181 -46 459 -100 600 -69 181 -127 295 -215 427 -75
110 -117 160 -230 272 -246 244 -488 379 -870 486 -50 14 -328 40 -415 39 -36
-1 -123 -7 -195 -14z"/>
<path d="M4424 6256 c-232 -66 -367 -252 -351 -484 6 -100 34 -178 86 -246
172 -223 489 -246 687 -50 68 68 109 145 131 248 42 203 -87 433 -285 509 -90
34 -196 43 -268 23z m240 -143 c141 -71 214 -218 185 -372 -6 -36 -17 -77 -24
-91 -28 -54 -97 -120 -160 -151 -61 -30 -70 -31 -153 -27 -74 3 -96 8 -136 32
-141 82 -215 243 -176 382 32 112 141 223 240 244 60 12 185 3 224 -17z"/>
<path d="M7060 6024 c-111 -21 -228 -88 -289 -168 -53 -69 -71 -126 -71 -230
0 -196 110 -300 431 -406 195 -65 244 -108 224 -199 -8 -36 -63 -87 -102 -94
-162 -31 -267 -13 -479 79 -6 3 -15 -10 -22 -28 -6 -18 -25 -73 -42 -122 -35
-103 -42 -90 70 -139 106 -46 198 -67 315 -74 150 -8 234 7 346 63 152 77 224
193 224 364 0 158 -63 246 -235 327 -82 39 -109 49 -230 88 -78 25 -148 62
-176 92 -36 39 -33 102 6 147 26 29 41 36 99 47 108 19 255 -13 353 -77 15
-10 29 -16 31 -14 26 33 117 212 112 220 -11 17 -134 76 -210 100 -53 17 -101
23 -200 25 -71 2 -141 2 -155 -1z"/>
<path d="M13625 6015 c-61 -22 -122 -91 -130 -150 -15 -96 36 -181 127 -211
44 -14 58 -15 107 -4 100 22 150 103 136 217 -14 114 -133 187 -240 148z m144
-62 c91 -67 72 -218 -34 -259 -131 -50 -242 85 -175 215 34 68 144 91 209 44z"/>
<path d="M13610 5835 c0 -95 0 -95 25 -95 22 0 25 4 25 35 0 44 20 46 40 2 11
-23 23 -33 43 -35 l28 -3 -21 41 c-20 38 -20 43 -6 59 20 22 20 41 0 69 -13
19 -24 22 -75 22 l-59 0 0 -95z"/>
<path d="M7860 5880 l0 -131 200 3 200 3 0 -547 0 -548 145 0 145 0 0 548 0
547 195 -3 195 -3 0 131 0 130 -540 0 -540 0 0 -130z"/>
<path d="M9240 5335 l0 -675 450 0 450 0 0 130 0 130 -305 0 -305 0 0 148 0
147 260 -3 260 -3 0 131 0 130 -260 0 -260 0 0 145 0 146 303 -1 302 -1 3 125
3 126 -451 0 -450 0 0 -675z"/>
<path d="M10827 5908 c-22 -57 -58 -155 -82 -218 -23 -63 -64 -169 -89 -235
-25 -66 -46 -125 -46 -131 0 -6 -14 -44 -31 -85 -17 -41 -44 -110 -59 -154
-25 -72 -48 -136 -126 -343 -13 -34 -24 -67 -24 -72 0 -6 58 -10 150 -10 l149
0 17 58 c8 31 28 90 42 130 l27 72 251 0 252 0 48 -130 49 -130 153 0 c143 0
154 1 147 18 -4 9 -17 46 -29 82 -13 36 -40 108 -60 160 -80 201 -109 276
-119 305 -5 17 -29 80 -52 140 -23 61 -63 164 -88 230 -25 66 -68 179 -96 250
-27 72 -52 138 -55 148 -5 15 -21 17 -148 17 l-143 0 -38 -102z m243 -436 c0
-7 20 -66 45 -131 25 -65 48 -132 51 -149 l7 -32 -167 0 c-129 0 -167 3 -164
13 12 44 46 147 78 237 20 58 47 139 60 180 l22 75 34 -90 c19 -50 34 -96 34
-103z"/>
<path d="M11920 5335 l0 -675 140 0 140 0 0 397 0 398 91 -195 c50 -107 115
-249 146 -315 30 -66 69 -148 86 -183 l30 -63 80 3 79 3 65 140 c35 77 81 176
102 220 33 68 76 163 163 350 18 40 18 36 18 -357 l0 -398 140 0 140 0 0 675
0 676 -141 -3 -141 -3 -15 -40 c-15 -38 -70 -164 -153 -345 -22 -47 -64 -143
-95 -215 -31 -71 -76 -173 -100 -225 -24 -52 -45 -102 -48 -110 -4 -16 -32 39
-180 360 -52 113 -134 288 -181 390 l-86 185 -140 3 -140 3 0 -676z"/>
<path d="M3323 5040 c-84 -17 -82 -23 29 -72 57 -26 117 -52 135 -58 45 -17
129 -109 142 -156 14 -49 14 -148 1 -195 -15 -52 -82 -123 -145 -155 -47 -22
-64 -26 -122 -22 -44 3 -89 13 -128 30 -88 39 -189 78 -192 74 -2 -2 8 -24 23
-49 30 -54 136 -138 198 -157 67 -21 215 -16 271 9 77 34 162 115 196 187 62
130 61 226 -2 357 -69 145 -252 238 -406 207z"/>
</g>
</svg>
